<?xml version="1.0" encoding="UTF-8"?>
<!DOCTYPE svg PUBLIC "-//W3C//DTD SVG 1.1//EN" "http://www.w3.org/Graphics/SVG/1.1/DTD/svg11.dtd">
<svg xmlns="http://www.w3.org/2000/svg" version="1.1" width="984px" height="992px" style="shape-rendering:geometricPrecision; text-rendering:geometricPrecision; image-rendering:optimizeQuality; fill-rule:evenodd; clip-rule:evenodd" xmlns:xlink="http://www.w3.org/1999/xlink">
<g><path style="opacity:0.085" fill="#000000" d="M 983.5,201.5 C 983.5,203.167 983.5,204.833 983.5,206.5C 953.534,253.743 923.034,300.743 892,347.5C 889.097,351.43 885.43,354.097 881,355.5C 873.307,353.903 866.474,350.57 860.5,345.5C 859.667,556.166 859.167,766.833 859,977.5C 858.322,986.009 853.822,990.676 845.5,991.5C 568.5,991.5 291.5,991.5 14.5,991.5C 6.17758,990.676 1.67758,986.009 1,977.5C 0.333333,707.833 0.333333,438.167 1,168.5C 1.19808,166.618 1.69808,164.952 2.5,163.5C 2.5,434.833 2.5,706.167 2.5,977.5C 5.83333,977.5 9.16667,977.5 12.5,977.5C 288.5,977.5 564.5,977.5 840.5,977.5C 840.5,760.167 840.5,542.833 840.5,325.5C 840.5,324.167 840.5,322.833 840.5,321.5C 840.5,320.5 840.5,319.5 840.5,318.5C 853.785,326.482 866.785,334.982 879.5,344C 880.759,344.982 882.092,345.315 883.5,345C 915.291,297.252 946.958,249.419 978.5,201.5C 954.852,185.007 930.852,169.007 906.5,153.5C 906.5,152.833 906.167,152.5 905.5,152.5C 905.236,143.589 909.57,138.423 918.5,137C 922.179,136.213 925.846,135.379 929.5,134.5C 928.046,128.106 928.213,121.773 930,115.5C 935.891,112.206 942.057,109.706 948.5,108C 902.218,74.0517 856.218,39.7184 810.5,5C 809.5,4.33333 808.5,4.33333 807.5,5C 809.717,18.9925 803.717,27.4925 789.5,30.5C 789.042,37.0906 787.542,43.4239 785,49.5C 779.987,53.7163 774.154,55.7163 767.5,55.5C 767.448,57.9029 767.781,60.2362 768.5,62.5C 746.862,48.0102 725.195,33.5102 703.5,19C 702.241,18.0181 700.908,17.6848 699.5,18C 668,65.5 636.5,113 605,160.5C 604.251,161.635 604.417,162.635 605.5,163.5C 607.36,164.26 609.027,165.26 610.5,166.5C 611.129,169.397 612.129,172.064 613.5,174.5C 613.5,178.167 613.5,181.833 613.5,185.5C 613.806,188.385 613.473,191.052 612.5,193.5C 612.854,189.363 612.354,185.363 611,181.5C 605.384,177.884 600.384,173.551 596,168.5C 595.333,166.167 595.333,163.833 596,161.5C 602.269,150.237 608.936,139.237 616,128.5C 639.333,93.1667 662.667,57.8333 686,22.5C 688.54,20.2953 690.707,17.7953 692.5,15C 694.199,14.0419 696.033,13.5419 698,13.5C 701.628,14.2276 705.128,15.3943 708.5,17C 726.333,28.8333 744.167,40.6667 762,52.5C 765.153,50.4984 768.653,49.3317 772.5,49C 774.286,48.2155 775.786,47.0488 777,45.5C 777.695,39.9878 779.028,34.6545 781,29.5C 786.507,26.0803 791.841,22.4136 797,18.5C 797.769,13.3239 799.102,8.32387 801,3.5C 805.565,-0.260256 810.399,-0.426922 815.5,3C 860.593,36.4178 905.426,70.2511 950,104.5C 953.551,109.541 953.051,114.208 948.5,118.5C 943.813,119.754 939.48,121.754 935.5,124.5C 934.167,127.833 934.167,131.167 935.5,134.5C 933.604,143.548 927.938,148.048 918.5,148C 916.445,148.687 914.779,149.854 913.5,151.5C 933.958,165.568 954.624,179.402 975.5,193C 978.399,195.729 981.066,198.562 983.5,201.5 Z"/></g>
<g><path style="opacity:1" fill="#eae5e4" d="M 905.5,152.5 C 901.656,150.413 897.989,148.08 894.5,145.5C 897.4,145.72 900.067,145.054 902.5,143.5C 906.523,137.31 911.69,132.31 918,128.5C 922.391,120.67 924.725,112.336 925,103.5C 924.333,102.167 923.667,100.833 923,99.5C 916.522,92.6904 909.689,86.1904 902.5,80C 879.447,62.6133 856.114,45.6133 832.5,29C 828.023,26.1761 823.19,24.3428 818,23.5C 804.46,28.0385 795.127,37.0385 790,50.5C 786.376,54.1581 782.709,57.8248 779,61.5C 778.244,63.8087 778.744,65.8087 780.5,67.5C 780.043,68.2975 779.376,68.6309 778.5,68.5C 775.366,67.0991 772.366,65.4325 769.5,63.5C 768.833,63.5 768.5,63.1667 768.5,62.5C 767.781,60.2362 767.448,57.9029 767.5,55.5C 774.154,55.7163 779.987,53.7163 785,49.5C 787.542,43.4239 789.042,37.0906 789.5,30.5C 803.717,27.4925 809.717,18.9925 807.5,5C 808.5,4.33333 809.5,4.33333 810.5,5C 856.218,39.7184 902.218,74.0517 948.5,108C 942.057,109.706 935.891,112.206 930,115.5C 928.213,121.773 928.046,128.106 929.5,134.5C 925.846,135.379 922.179,136.213 918.5,137C 909.57,138.423 905.236,143.589 905.5,152.5 Z"/></g>
<g><path style="opacity:1" fill="#fed804" d="M 768.5,62.5 C 768.5,63.1667 768.833,63.5 769.5,63.5C 769.656,67.5817 769.156,71.5817 768,75.5C 762.662,79.8359 756.495,82.0026 749.5,82C 750.056,82.3826 750.389,82.8826 750.5,83.5C 749.351,83.7911 748.684,84.6244 748.5,86C 748.667,86.8333 748.833,87.6667 749,88.5C 793.268,122.77 838.102,156.27 883.5,189C 885.989,189.941 887.989,189.441 889.5,187.5C 889.081,181.273 889.581,174.939 891,168.5C 895.102,163.853 900.269,161.853 906.5,162.5C 905.449,159.344 905.449,156.344 906.5,153.5C 930.852,169.007 954.852,185.007 978.5,201.5C 946.958,249.419 915.291,297.252 883.5,345C 882.092,345.315 880.759,344.982 879.5,344C 866.785,334.982 853.785,326.482 840.5,318.5C 820.053,303.769 799.053,289.769 777.5,276.5C 754.042,260.598 730.375,244.932 706.5,229.5C 694.482,221.807 682.482,214.14 670.5,206.5C 650.881,192.684 630.881,179.35 610.5,166.5C 609.027,165.26 607.36,164.26 605.5,163.5C 604.417,162.635 604.251,161.635 605,160.5C 636.5,113 668,65.5 699.5,18C 700.908,17.6848 702.241,18.0181 703.5,19C 725.195,33.5102 746.862,48.0102 768.5,62.5 Z"/></g>
<g><path style="opacity:1" fill="#f6f4f3" d="M 894.5,145.5 C 893.609,144.89 892.609,144.557 891.5,144.5C 856.128,120.474 820.461,96.8075 784.5,73.5C 782.5,71.8333 780.5,70.1667 778.5,68.5C 779.376,68.6309 780.043,68.2975 780.5,67.5C 778.744,65.8087 778.244,63.8087 779,61.5C 782.709,57.8248 786.376,54.1581 790,50.5C 795.127,37.0385 804.46,28.0385 818,23.5C 823.19,24.3428 828.023,26.1761 832.5,29C 856.114,45.6133 879.447,62.6133 902.5,80C 909.689,86.1904 916.522,92.6904 923,99.5C 923.667,100.833 924.333,102.167 925,103.5C 924.725,112.336 922.391,120.67 918,128.5C 911.69,132.31 906.523,137.31 902.5,143.5C 900.067,145.054 897.4,145.72 894.5,145.5 Z"/></g>
<g><path style="opacity:1" fill="#fefefe" d="M 819.5,40.5 C 828.758,41.7955 837.091,45.2955 844.5,51C 858.219,61.7192 872.219,72.0525 886.5,82C 892.302,86.8004 897.802,91.967 903,97.5C 909.184,107.02 908.85,116.354 902,125.5C 898.312,130.186 894.312,134.519 890,138.5C 886.121,136.811 882.288,134.978 878.5,133C 852.636,115.637 826.636,98.4703 800.5,81.5C 796.428,78.4314 793.094,74.7648 790.5,70.5C 794.752,63.6606 799.252,56.9939 804,50.5C 808.315,45.6543 813.482,42.321 819.5,40.5 Z"/></g>
<g><path style="opacity:1" fill="#fefb76" d="M 769.5,63.5 C 772.366,65.4325 775.366,67.0991 778.5,68.5C 780.5,70.1667 782.5,71.8333 784.5,73.5C 782.578,80.9075 784.078,87.5742 789,93.5C 809.685,112.192 831.518,129.358 854.5,145C 861.186,149.095 868.353,151.928 876,153.5C 882.333,152.42 887.499,149.42 891.5,144.5C 892.609,144.557 893.609,144.89 894.5,145.5C 897.989,148.08 901.656,150.413 905.5,152.5C 906.167,152.5 906.5,152.833 906.5,153.5C 905.449,156.344 905.449,159.344 906.5,162.5C 900.269,161.853 895.102,163.853 891,168.5C 889.581,174.939 889.081,181.273 889.5,187.5C 843.741,152.115 797.408,117.448 750.5,83.5C 750.389,82.8826 750.056,82.3826 749.5,82C 756.495,82.0026 762.662,79.8359 768,75.5C 769.156,71.5817 769.656,67.5817 769.5,63.5 Z"/></g>
<g><path style="opacity:1" fill="#fefe81" d="M 784.5,73.5 C 820.461,96.8075 856.128,120.474 891.5,144.5C 887.499,149.42 882.333,152.42 876,153.5C 868.353,151.928 861.186,149.095 854.5,145C 831.518,129.358 809.685,112.192 789,93.5C 784.078,87.5742 782.578,80.9075 784.5,73.5 Z"/></g>
<g><path style="opacity:1" fill="#ffd102" d="M 750.5,83.5 C 797.408,117.448 843.741,152.115 889.5,187.5C 887.989,189.441 885.989,189.941 883.5,189C 838.102,156.27 793.268,122.77 749,88.5C 748.833,87.6667 748.667,86.8333 748.5,86C 748.684,84.6244 749.351,83.7911 750.5,83.5 Z"/></g>
<g><path style="opacity:0.065" fill="#010101" d="M 171.5,211.5 C 164.765,221.382 155.432,227.549 143.5,230C 115.128,232.907 96.9615,220.74 89,193.5C 87.0699,181.978 88.9032,171.145 94.5,161C 64.1685,160.5 33.8352,160.333 3.5,160.5C 6.14781,156.88 9.81447,155.047 14.5,155C 44.2068,154.04 73.8735,154.374 103.5,156C 108.448,157.717 111.115,161.217 111.5,166.5C 100.807,191.256 107.14,210.089 130.5,223C 146.606,227.725 160.272,223.891 171.5,211.5 Z"/></g>
<g><path style="opacity:0.069" fill="#000000" d="M 311.5,216.5 C 305.208,223.818 297.208,228.318 287.5,230C 254.662,232.26 236.329,217.093 232.5,184.5C 232.473,176.302 234.473,168.635 238.5,161.5C 217.844,160.5 197.177,160.167 176.5,160.5C 179.291,157.104 182.958,155.271 187.5,155C 207.871,154.073 228.204,154.407 248.5,156C 253.265,158.102 255.598,161.768 255.5,167C 246.809,185.873 249.809,202.539 264.5,217C 280.316,228.361 295.983,228.194 311.5,216.5 Z"/></g>
<g><path style="opacity:0.07" fill="#010101" d="M 457.5,214.5 C 446.059,228.04 431.393,233.207 413.5,230C 388.176,222.193 376.009,205.026 377,178.5C 378.341,172.314 380.174,166.314 382.5,160.5C 362.167,160.5 341.833,160.5 321.5,160.5C 323.764,156.865 327.098,155.032 331.5,155C 351.877,154.06 372.21,154.394 392.5,156C 397.293,158.122 399.627,161.789 399.5,167C 398.749,171.922 397.583,176.755 396,181.5C 394.277,207.037 406.11,221.703 431.5,225.5C 441.377,224.558 450.044,220.891 457.5,214.5 Z"/></g>
<g><path style="opacity:0.069" fill="#010101" d="M 603.5,212.5 C 597.991,220.818 590.325,226.318 580.5,229C 552.392,234.534 533.225,224.034 523,197.5C 519.215,184.703 520.715,172.536 527.5,161C 506.836,160.5 486.169,160.333 465.5,160.5C 468.028,156.569 471.694,154.736 476.5,155C 496.543,154.061 516.543,154.395 536.5,156C 543.07,159.655 545.237,165.155 543,172.5C 535.278,195.225 542.112,212.059 563.5,223C 579.015,227.622 592.348,224.122 603.5,212.5 Z"/></g>
<g><path style="opacity:0.999" fill="#fefefe" d="M 3.5,160.5 C 33.8352,160.333 64.1685,160.5 94.5,161C 88.9032,171.145 87.0699,181.978 89,193.5C 96.9615,220.74 115.128,232.907 143.5,230C 155.432,227.549 164.765,221.382 171.5,211.5C 171.5,210.833 171.833,210.5 172.5,210.5C 173.906,210.027 174.573,209.027 174.5,207.5C 176.501,203.186 178.168,198.853 179.5,194.5C 182.293,183.709 180.959,173.376 175.5,163.5C 175.586,162.504 175.252,161.671 174.5,161C 175.094,160.536 175.761,160.369 176.5,160.5C 197.177,160.167 217.844,160.5 238.5,161.5C 234.473,168.635 232.473,176.302 232.5,184.5C 236.329,217.093 254.662,232.26 287.5,230C 297.208,228.318 305.208,223.818 311.5,216.5C 312.167,215.167 313.167,214.167 314.5,213.5C 315.906,213.027 316.573,212.027 316.5,210.5C 319.147,205.546 321.48,200.546 323.5,195.5C 326.897,184.287 325.564,173.62 319.5,163.5C 319.285,161.821 319.952,160.821 321.5,160.5C 341.833,160.5 362.167,160.5 382.5,160.5C 380.174,166.314 378.341,172.314 377,178.5C 376.009,205.026 388.176,222.193 413.5,230C 431.393,233.207 446.059,228.04 457.5,214.5C 461.862,209.113 465.195,203.113 467.5,196.5C 470.772,185.227 469.772,174.227 464.5,163.5C 462.871,161.804 463.204,160.804 465.5,160.5C 486.169,160.333 506.836,160.5 527.5,161C 520.715,172.536 519.215,184.703 523,197.5C 533.225,224.034 552.392,234.534 580.5,229C 590.325,226.318 597.991,220.818 603.5,212.5C 604.512,211.128 605.512,209.795 606.5,208.5C 607.906,208.027 608.573,207.027 608.5,205.5C 610.065,201.473 611.398,197.473 612.5,193.5C 613.473,191.052 613.806,188.385 613.5,185.5C 614.451,184.081 614.784,182.415 614.5,180.5C 659.785,209.482 704.785,238.982 749.5,269C 752.044,270.092 754.711,270.759 757.5,271C 767.828,279.496 778.828,286.996 790.5,293.5C 791.167,293.5 791.833,293.5 792.5,293.5C 794.215,296.201 796.215,298.701 798.5,301C 811.969,309.637 825.302,318.47 838.5,327.5C 839.5,543.832 839.833,760.166 839.5,976.5C 563.666,976.167 287.999,976.5 12.5,977.5C 9.16667,977.5 5.83333,977.5 2.5,977.5C 2.5,706.167 2.5,434.833 2.5,163.5C 2.26269,162.209 2.59603,161.209 3.5,160.5 Z"/></g>
<g><path style="opacity:0.005" fill="#000000" d="M 175.5,163.5 C 180.959,173.376 182.293,183.709 179.5,194.5C 179.749,184.827 178.082,175.494 174.5,166.5C 175.127,165.583 175.461,164.583 175.5,163.5 Z"/></g>
<g><path style="opacity:0.005" fill="#000000" d="M 319.5,163.5 C 325.564,173.62 326.897,184.287 323.5,195.5C 324.171,187.219 323.005,179.219 320,171.5C 319.503,168.854 319.336,166.187 319.5,163.5 Z"/></g>
<g><path style="opacity:0.005" fill="#000000" d="M 464.5,163.5 C 469.772,174.227 470.772,185.227 467.5,196.5C 468.749,187.563 467.583,178.896 464,170.5C 463.204,167.961 463.371,165.628 464.5,163.5 Z"/></g>
<g><path style="opacity:1" fill="#bdbbb7" d="M 610.5,166.5 C 630.881,179.35 650.881,192.684 670.5,206.5C 671.167,207.5 671.833,208.5 672.5,209.5C 669.422,207.613 666.088,206.113 662.5,205C 650.5,196.333 638.5,187.667 626.5,179C 622.014,177.619 618.014,175.452 614.5,172.5C 613.702,172.957 613.369,173.624 613.5,174.5C 612.129,172.064 611.129,169.397 610.5,166.5 Z"/></g>
<g><path style="opacity:1" fill="#d5d5d5" d="M 672.5,209.5 C 673.752,211.001 674.752,212.668 675.5,214.5C 670.958,212.141 666.292,209.974 661.5,208C 651.541,199.631 641.208,191.964 630.5,185C 625.053,182.524 619.886,179.691 615,176.5C 614.51,177.793 614.343,179.127 614.5,180.5C 614.784,182.415 614.451,184.081 613.5,185.5C 613.5,181.833 613.5,178.167 613.5,174.5C 613.369,173.624 613.702,172.957 614.5,172.5C 618.014,175.452 622.014,177.619 626.5,179C 638.5,187.667 650.5,196.333 662.5,205C 666.088,206.113 669.422,207.613 672.5,209.5 Z"/></g>
<g><path style="opacity:0.02" fill="#555555" d="M 608.5,205.5 C 608.573,207.027 607.906,208.027 606.5,208.5C 606.427,206.973 607.094,205.973 608.5,205.5 Z"/></g>
<g><path style="opacity:0.031" fill="#5c5c5c" d="M 174.5,207.5 C 174.573,209.027 173.906,210.027 172.5,210.5C 172.427,208.973 173.094,207.973 174.5,207.5 Z"/></g>
<g><path style="opacity:0.32" fill="#0d0b07" d="M 670.5,206.5 C 682.482,214.14 694.482,221.807 706.5,229.5C 706.158,230.338 705.492,230.672 704.5,230.5C 700.031,229.565 695.697,228.232 691.5,226.5C 685.451,223.473 680.118,219.473 675.5,214.5C 674.752,212.668 673.752,211.001 672.5,209.5C 671.833,208.5 671.167,207.5 670.5,206.5 Z"/></g>
<g><path style="opacity:0.004" fill="#000000" d="M 316.5,210.5 C 316.573,212.027 315.906,213.027 314.5,213.5C 314.427,211.973 315.094,210.973 316.5,210.5 Z"/></g>
<g><path style="opacity:1" fill="#efefef" d="M 675.5,214.5 C 680.118,219.473 685.451,223.473 691.5,226.5C 691.369,227.376 691.702,228.043 692.5,228.5C 698.86,230.724 704.86,233.558 710.5,237C 722.223,246.511 734.223,255.511 746.5,264C 754.637,266.565 761.637,270.898 767.5,277C 775.627,281.975 783.293,287.475 790.5,293.5C 778.828,286.996 767.828,279.496 757.5,271C 754.711,270.759 752.044,270.092 749.5,269C 704.785,238.982 659.785,209.482 614.5,180.5C 614.343,179.127 614.51,177.793 615,176.5C 619.886,179.691 625.053,182.524 630.5,185C 641.208,191.964 651.541,199.631 661.5,208C 666.292,209.974 670.958,212.141 675.5,214.5 Z"/></g>
<g><path style="opacity:1" fill="#bebcb8" d="M 706.5,229.5 C 730.375,244.932 754.042,260.598 777.5,276.5C 770.312,275.226 763.979,271.726 758.5,266C 752.172,264.354 746.839,261.021 742.5,256C 729.437,248.107 716.771,239.607 704.5,230.5C 705.492,230.672 706.158,230.338 706.5,229.5 Z"/></g>
<g><path style="opacity:1" fill="#d7d7d7" d="M 691.5,226.5 C 695.697,228.232 700.031,229.565 704.5,230.5C 716.771,239.607 729.437,248.107 742.5,256C 746.839,261.021 752.172,264.354 758.5,266C 763.979,271.726 770.312,275.226 777.5,276.5C 777.33,277.822 777.663,278.989 778.5,280C 799.355,293.591 820.022,307.425 840.5,321.5C 840.5,322.833 840.5,324.167 840.5,325.5C 833.998,319.834 827.331,314.334 820.5,309C 818.5,308.667 816.5,308.333 814.5,308C 808.104,301.776 800.771,296.943 792.5,293.5C 791.833,293.5 791.167,293.5 790.5,293.5C 783.293,287.475 775.627,281.975 767.5,277C 761.637,270.898 754.637,266.565 746.5,264C 734.223,255.511 722.223,246.511 710.5,237C 704.86,233.558 698.86,230.724 692.5,228.5C 691.702,228.043 691.369,227.376 691.5,226.5 Z"/></g>
<g><path style="opacity:1" fill="#bdbcb7" d="M 777.5,276.5 C 799.053,289.769 820.053,303.769 840.5,318.5C 840.5,319.5 840.5,320.5 840.5,321.5C 820.022,307.425 799.355,293.591 778.5,280C 777.663,278.989 777.33,277.822 777.5,276.5 Z"/></g>
<g><path style="opacity:1" fill="#fed903" d="M 78.5,381.5 C 308.833,381.5 539.167,381.5 769.5,381.5C 769.5,384.167 769.5,386.833 769.5,389.5C 539.167,389.5 308.833,389.5 78.5,389.5C 78.5,386.833 78.5,384.167 78.5,381.5 Z"/></g>
<g><path style="opacity:1" fill="#fff0b3" d="M 78.5,381.5 C 78.5,384.167 78.5,386.833 78.5,389.5C 308.833,389.5 539.167,389.5 769.5,389.5C 539.001,390.5 308.334,390.833 77.5,390.5C 77.19,387.287 77.5233,384.287 78.5,381.5 Z"/></g>
<g><path style="opacity:1" fill="#ffd810" d="M 123.5,456.5 C 123.5,457.167 123.167,457.5 122.5,457.5C 117.523,459.322 112.857,461.655 108.5,464.5C 98.1667,464.5 87.8333,464.5 77.5,464.5C 77.5,461.833 77.5,459.167 77.5,456.5C 92.8333,456.5 108.167,456.5 123.5,456.5 Z"/></g>
<g><path style="opacity:1" fill="#fe579f" d="M 142.5,456.5 C 140.833,456.5 139.167,456.5 137.5,456.5C 137.5,505.5 137.5,554.5 137.5,603.5C 131.949,603.473 126.616,602.806 121.5,601.5C 122.833,578.009 123.5,554.176 123.5,530C 123.495,505.762 123.162,481.595 122.5,457.5C 123.167,457.5 123.5,457.167 123.5,456.5C 129.983,455.324 136.317,455.324 142.5,456.5 Z"/></g>
<g><path style="opacity:1" fill="#fe4e94" d="M 142.5,456.5 C 143.167,456.5 143.833,456.5 144.5,456.5C 143.845,506.051 144.512,555.384 146.5,604.5C 143.391,604.736 140.391,604.403 137.5,603.5C 137.5,554.5 137.5,505.5 137.5,456.5C 139.167,456.5 140.833,456.5 142.5,456.5 Z"/></g>
<g><path style="opacity:1" fill="#ffd804" d="M 146.5,456.5 C 354.167,456.5 561.833,456.5 769.5,456.5C 769.5,459.167 769.5,461.833 769.5,464.5C 566.833,464.5 364.167,464.5 161.5,464.5C 159.062,462.733 156.395,461.399 153.5,460.5C 151.297,458.9 148.964,457.567 146.5,456.5 Z"/></g>
<g><path style="opacity:1" fill="#fe4687" d="M 144.5,456.5 C 145.167,456.5 145.833,456.5 146.5,456.5C 148.964,457.567 151.297,458.9 153.5,460.5C 153.5,508.5 153.5,556.5 153.5,604.5C 155.415,604.216 157.081,604.549 158.5,605.5C 154.466,605.495 150.466,605.162 146.5,604.5C 144.512,555.384 143.845,506.051 144.5,456.5 Z"/></g>
<g><path style="opacity:1" fill="#fe4f95" d="M 122.5,457.5 C 123.162,481.595 123.495,505.762 123.5,530C 123.5,554.176 122.833,578.009 121.5,601.5C 114.593,601.229 107.926,600.229 101.5,598.5C 102.833,598.5 104.167,598.5 105.5,598.5C 105.832,555.33 105.499,512.33 104.5,469.5C 105.833,467.833 107.167,466.167 108.5,464.5C 112.857,461.655 117.523,459.322 122.5,457.5 Z"/></g>
<g><path style="opacity:1" fill="#ff3d7b" d="M 153.5,460.5 C 156.395,461.399 159.062,462.733 161.5,464.5C 161.833,465.167 162.167,465.833 162.5,466.5C 162.5,512.833 162.5,559.167 162.5,605.5C 161.167,605.5 159.833,605.5 158.5,605.5C 157.081,604.549 155.415,604.216 153.5,604.5C 153.5,556.5 153.5,508.5 153.5,460.5 Z"/></g>
<g><path style="opacity:1" fill="#fe366f" d="M 162.5,466.5 C 165.5,468.833 168.167,471.5 170.5,474.5C 169.167,510.5 169.167,546.5 170.5,582.5C 169.631,584.717 169.298,587.05 169.5,589.5C 168.343,592.273 167.676,595.273 167.5,598.5C 166.781,600.764 166.448,603.097 166.5,605.5C 165.167,605.5 163.833,605.5 162.5,605.5C 162.5,559.167 162.5,512.833 162.5,466.5 Z"/></g>
<g><path style="opacity:1" fill="#fe3065" d="M 170.5,474.5 C 171.488,475.795 172.488,477.128 173.5,478.5C 176.932,483.623 179.099,489.29 180,495.5C 180.5,504.494 180.666,513.494 180.5,522.5C 180.5,522.833 180.5,523.167 180.5,523.5C 180.425,526.206 180.092,528.873 179.5,531.5C 176.981,548.579 173.981,565.579 170.5,582.5C 169.167,546.5 169.167,510.5 170.5,474.5 Z"/></g>
<g><path style="opacity:1" fill="#cdcbcb" d="M 173.5,478.5 C 183.851,485.732 190.018,495.732 192,508.5C 192.499,513.155 192.666,517.821 192.5,522.5C 188.5,522.5 184.5,522.5 180.5,522.5C 180.666,513.494 180.5,504.494 180,495.5C 179.099,489.29 176.932,483.623 173.5,478.5 Z"/></g>
<g><path style="opacity:1" fill="#fe3671" d="M 60.5,505.5 C 63.1667,505.5 65.8333,505.5 68.5,505.5C 68.5,533.833 68.5,562.167 68.5,590.5C 63.1046,589.296 58.1046,587.296 53.5,584.5C 54.1666,572.004 54.4999,559.338 54.5,546.5C 54.4991,533.482 53.8325,520.815 52.5,508.5C 54.7916,506.733 57.4582,505.733 60.5,505.5 Z"/></g>
<g><path style="opacity:1" fill="#fe3f7d" d="M 60.5,505.5 C 70.0902,503.576 79.0902,505.242 87.5,510.5C 87.5,538.833 87.5,567.167 87.5,595.5C 88.791,595.263 89.791,595.596 90.5,596.5C 86.0352,595.967 81.7019,594.967 77.5,593.5C 74.2154,593.072 71.2154,592.072 68.5,590.5C 68.5,562.167 68.5,533.833 68.5,505.5C 65.8333,505.5 63.1667,505.5 60.5,505.5 Z"/></g>
<g><path style="opacity:1" fill="#ff2f65" d="M 52.5,508.5 C 53.8325,520.815 54.4991,533.482 54.5,546.5C 54.4999,559.338 54.1666,572.004 53.5,584.5C 53.1667,584.5 52.8333,584.5 52.5,584.5C 30.5252,568.747 24.6919,548.414 35,523.5C 39.498,516.827 45.3313,511.827 52.5,508.5 Z"/></g>
<g><path style="opacity:1" fill="#fe4788" d="M 104.5,469.5 C 105.499,512.33 105.832,555.33 105.5,598.5C 104.167,598.5 102.833,598.5 101.5,598.5C 99.8333,598.5 98.1667,598.5 96.5,598.5C 94.6264,597.715 92.6264,597.048 90.5,596.5C 89.791,595.596 88.791,595.263 87.5,595.5C 87.5,567.167 87.5,538.833 87.5,510.5C 91.0477,511.607 94.3811,513.274 97.5,515.5C 97.8856,511.539 97.3856,507.539 96,503.5C 94.3708,493.367 95.7041,483.7 100,474.5C 101.049,472.382 102.549,470.716 104.5,469.5 Z"/></g>
<g><path style="opacity:1" fill="#ccae0a" d="M 180.5,523.5 C 184.5,523.5 188.5,523.5 192.5,523.5C 192.5,526.167 192.5,528.833 192.5,531.5C 192.167,531.5 191.833,531.5 191.5,531.5C 187.5,531.5 183.5,531.5 179.5,531.5C 180.092,528.873 180.425,526.206 180.5,523.5 Z"/></g>
<g><path style="opacity:1" fill="#fed903" d="M 192.5,523.5 C 384.833,523.5 577.167,523.5 769.5,523.5C 769.5,526.167 769.5,528.833 769.5,531.5C 577.167,531.5 384.833,531.5 192.5,531.5C 192.5,528.833 192.5,526.167 192.5,523.5 Z"/></g>
<g><path style="opacity:1" fill="#cccbcb" d="M 179.5,531.5 C 183.5,531.5 187.5,531.5 191.5,531.5C 191.397,537.861 190.897,544.194 190,550.5C 187.748,563.53 185.581,576.53 183.5,589.5C 178.833,589.5 174.167,589.5 169.5,589.5C 169.298,587.05 169.631,584.717 170.5,582.5C 173.981,565.579 176.981,548.579 179.5,531.5 Z"/></g>
<g><path style="opacity:1" fill="#cdcccc" d="M 52.5,584.5 C 52.8333,584.5 53.1667,584.5 53.5,584.5C 58.1046,587.296 63.1046,589.296 68.5,590.5C 71.2154,592.072 74.2154,593.072 77.5,593.5C 77.5,595.167 77.5,596.833 77.5,598.5C 83.8333,598.5 90.1667,598.5 96.5,598.5C 98.1667,598.5 99.8333,598.5 101.5,598.5C 107.926,600.229 114.593,601.229 121.5,601.5C 126.616,602.806 131.949,603.473 137.5,603.5C 140.391,604.403 143.391,604.736 146.5,604.5C 150.466,605.162 154.466,605.495 158.5,605.5C 159.833,605.5 161.167,605.5 162.5,605.5C 163.833,605.5 165.167,605.5 166.5,605.5C 166.448,603.097 166.781,600.764 167.5,598.5C 171.833,598.5 176.167,598.5 180.5,598.5C 179.392,604.815 178.392,611.148 177.5,617.5C 147.11,616.182 117.11,612.016 87.5,605C 74.1791,602.092 62.6791,595.925 53,586.5C 52.5357,585.906 52.369,585.239 52.5,584.5 Z"/></g>
<g><path style="opacity:1" fill="#ebcf52" d="M 169.5,589.5 C 174.167,589.5 178.833,589.5 183.5,589.5C 379.001,589.167 574.334,589.5 769.5,590.5C 573.832,590.167 378.166,590.5 182.5,591.5C 181.652,593.409 181.318,595.409 181.5,597.5C 377.5,597.5 573.5,597.5 769.5,597.5C 573.334,598.5 377.001,598.833 180.5,598.5C 176.167,598.5 171.833,598.5 167.5,598.5C 167.676,595.273 168.343,592.273 169.5,589.5 Z"/></g>
<g><path style="opacity:1" fill="#fed804" d="M 769.5,590.5 C 769.5,592.833 769.5,595.167 769.5,597.5C 573.5,597.5 377.5,597.5 181.5,597.5C 181.318,595.409 181.652,593.409 182.5,591.5C 378.166,590.5 573.832,590.167 769.5,590.5 Z"/></g>
<g><path style="opacity:1" fill="#cdb247" d="M 77.5,593.5 C 81.7019,594.967 86.0352,595.967 90.5,596.5C 92.6264,597.048 94.6264,597.715 96.5,598.5C 90.1667,598.5 83.8333,598.5 77.5,598.5C 77.5,596.833 77.5,595.167 77.5,593.5 Z"/></g>
<g><path style="opacity:1" fill="#fed903" d="M 769.5,665.5 C 769.5,667.833 769.5,670.167 769.5,672.5C 539.167,672.5 308.833,672.5 78.5,672.5C 78.5,670.167 78.5,667.833 78.5,665.5C 308.833,665.5 539.167,665.5 769.5,665.5 Z"/></g>
<g><path style="opacity:1" fill="#ffe571" d="M 769.5,665.5 C 539.167,665.5 308.833,665.5 78.5,665.5C 78.5,667.833 78.5,670.167 78.5,672.5C 308.833,672.5 539.167,672.5 769.5,672.5C 539.001,673.5 308.334,673.833 77.5,673.5C 77.5,670.5 77.5,667.5 77.5,664.5C 308.334,664.167 539.001,664.5 769.5,665.5 Z"/></g>
<g><path style="opacity:1" fill="#ffd912" d="M 78.5,735.5 C 308.833,735.5 539.167,735.5 769.5,735.5C 769.5,738.167 769.5,740.833 769.5,743.5C 539.167,743.5 308.833,743.5 78.5,743.5C 78.5,740.833 78.5,738.167 78.5,735.5 Z"/></g>
<g><path style="opacity:1" fill="#ffeb99" d="M 78.5,735.5 C 78.5,738.167 78.5,740.833 78.5,743.5C 308.833,743.5 539.167,743.5 769.5,743.5C 539.001,744.5 308.334,744.833 77.5,744.5C 77.19,741.287 77.5233,738.287 78.5,735.5 Z"/></g>
<g><path style="opacity:1" fill="#ffd904" d="M 77.5,802.5 C 308.167,802.5 538.833,802.5 769.5,802.5C 769.5,805.167 769.5,807.833 769.5,810.5C 538.833,810.5 308.167,810.5 77.5,810.5C 77.5,807.833 77.5,805.167 77.5,802.5 Z"/></g>
<g><path style="opacity:1" fill="#fff0b3" d="M 769.5,873.5 C 539.167,873.5 308.833,873.5 78.5,873.5C 78.5,876.167 78.5,878.833 78.5,881.5C 77.5233,878.713 77.19,875.713 77.5,872.5C 308.334,872.167 539.001,872.5 769.5,873.5 Z"/></g>
<g><path style="opacity:1" fill="#fed903" d="M 769.5,873.5 C 769.5,876.167 769.5,878.833 769.5,881.5C 539.167,881.5 308.833,881.5 78.5,881.5C 78.5,878.833 78.5,876.167 78.5,873.5C 308.833,873.5 539.167,873.5 769.5,873.5 Z"/></g>
<g><path style="opacity:0.906" fill="#f6f6f6" d="M 792.5,293.5 C 800.771,296.943 808.104,301.776 814.5,308C 816.5,308.333 818.5,308.667 820.5,309C 827.331,314.334 833.998,319.834 840.5,325.5C 840.5,542.833 840.5,760.167 840.5,977.5C 564.5,977.5 288.5,977.5 12.5,977.5C 287.999,976.5 563.666,976.167 839.5,976.5C 839.833,760.166 839.5,543.832 838.5,327.5C 825.302,318.47 811.969,309.637 798.5,301C 796.215,298.701 794.215,296.201 792.5,293.5 Z"/></g>
</svg>
