<?xml version="1.0" encoding="UTF-8"?>
<!DOCTYPE svg PUBLIC "-//W3C//DTD SVG 1.1//EN" "http://www.w3.org/Graphics/SVG/1.1/DTD/svg11.dtd">
<svg xmlns="http://www.w3.org/2000/svg" version="1.1" width="512px" height="512px" style="shape-rendering:geometricPrecision; text-rendering:geometricPrecision; image-rendering:optimizeQuality; fill-rule:evenodd; clip-rule:evenodd" xmlns:xlink="http://www.w3.org/1999/xlink">
<g><path style="opacity:0.021" fill="#43443f" d="M -0.5,-0.5 C 0.166667,-0.5 0.833333,-0.5 1.5,-0.5C 1.16667,0.5 0.5,1.16667 -0.5,1.5C -0.5,0.833333 -0.5,0.166667 -0.5,-0.5 Z"/></g>
<g><path style="opacity:0.022" fill="#43443f" d="M 16.5,-0.5 C 18.1667,-0.5 19.8333,-0.5 21.5,-0.5C 14.5,7.16667 7.16667,14.5 -0.5,21.5C -0.5,19.8333 -0.5,18.1667 -0.5,16.5C 5.5,11.1667 11.1667,5.5 16.5,-0.5 Z"/></g>
<g><path style="opacity:0.022" fill="#43443f" d="M 36.5,-0.5 C 38.1667,-0.5 39.8333,-0.5 41.5,-0.5C 40.1667,1.16667 38.8333,2.83333 37.5,4.5C 32.1667,6.5 28.5,10.1667 26.5,15.5C 17.5,24.1667 8.5,32.8333 -0.5,41.5C -0.5,39.8333 -0.5,38.1667 -0.5,36.5C 12.1667,24.5 24.5,12.1667 36.5,-0.5 Z"/></g>
<g><path style="opacity:0.022" fill="#43443f" d="M 56.5,-0.5 C 58.1667,-0.5 59.8333,-0.5 61.5,-0.5C 60.1667,1.16667 58.8333,2.83333 57.5,4.5C 55.8333,4.5 54.1667,4.5 52.5,4.5C 53.8333,2.83333 55.1667,1.16667 56.5,-0.5 Z"/></g>
<g><path style="opacity:0.022" fill="#43443f" d="M 76.5,-0.5 C 78.1667,-0.5 79.8333,-0.5 81.5,-0.5C 80.1667,1.16667 78.8333,2.83333 77.5,4.5C 75.8333,4.5 74.1667,4.5 72.5,4.5C 73.8333,2.83333 75.1667,1.16667 76.5,-0.5 Z"/></g>
<g><path style="opacity:0.022" fill="#43443f" d="M 96.5,-0.5 C 98.1667,-0.5 99.8333,-0.5 101.5,-0.5C 100.167,1.16667 98.8333,2.83333 97.5,4.5C 95.8333,4.5 94.1667,4.5 92.5,4.5C 93.8333,2.83333 95.1667,1.16667 96.5,-0.5 Z"/></g>
<g><path style="opacity:0.022" fill="#43443f" d="M 116.5,-0.5 C 118.167,-0.5 119.833,-0.5 121.5,-0.5C 120.167,1.16667 118.833,2.83333 117.5,4.5C 115.833,4.5 114.167,4.5 112.5,4.5C 113.833,2.83333 115.167,1.16667 116.5,-0.5 Z"/></g>
<g><path style="opacity:0.022" fill="#43443f" d="M 136.5,-0.5 C 138.167,-0.5 139.833,-0.5 141.5,-0.5C 140.167,1.16667 138.833,2.83333 137.5,4.5C 135.833,4.5 134.167,4.5 132.5,4.5C 133.833,2.83333 135.167,1.16667 136.5,-0.5 Z"/></g>
<g><path style="opacity:0.022" fill="#43443f" d="M 156.5,-0.5 C 158.167,-0.5 159.833,-0.5 161.5,-0.5C 160.167,1.16667 158.833,2.83333 157.5,4.5C 155.833,4.5 154.167,4.5 152.5,4.5C 153.833,2.83333 155.167,1.16667 156.5,-0.5 Z"/></g>
<g><path style="opacity:0.022" fill="#43443f" d="M 176.5,-0.5 C 178.167,-0.5 179.833,-0.5 181.5,-0.5C 180.167,1.16667 178.833,2.83333 177.5,4.5C 175.833,4.5 174.167,4.5 172.5,4.5C 173.833,2.83333 175.167,1.16667 176.5,-0.5 Z"/></g>
<g><path style="opacity:0.022" fill="#43443f" d="M 196.5,-0.5 C 198.167,-0.5 199.833,-0.5 201.5,-0.5C 200.167,1.16667 198.833,2.83333 197.5,4.5C 195.833,4.5 194.167,4.5 192.5,4.5C 193.833,2.83333 195.167,1.16667 196.5,-0.5 Z"/></g>
<g><path style="opacity:0.022" fill="#43443f" d="M 216.5,-0.5 C 218.167,-0.5 219.833,-0.5 221.5,-0.5C 220.167,1.16667 218.833,2.83333 217.5,4.5C 215.833,4.5 214.167,4.5 212.5,4.5C 213.833,2.83333 215.167,1.16667 216.5,-0.5 Z"/></g>
<g><path style="opacity:0.022" fill="#43443f" d="M 236.5,-0.5 C 238.167,-0.5 239.833,-0.5 241.5,-0.5C 240.167,1.16667 238.833,2.83333 237.5,4.5C 235.833,4.5 234.167,4.5 232.5,4.5C 233.833,2.83333 235.167,1.16667 236.5,-0.5 Z"/></g>
<g><path style="opacity:0.022" fill="#43443f" d="M 256.5,-0.5 C 258.167,-0.5 259.833,-0.5 261.5,-0.5C 260.167,1.16667 258.833,2.83333 257.5,4.5C 255.833,4.5 254.167,4.5 252.5,4.5C 253.833,2.83333 255.167,1.16667 256.5,-0.5 Z"/></g>
<g><path style="opacity:0.022" fill="#43443f" d="M 276.5,-0.5 C 278.167,-0.5 279.833,-0.5 281.5,-0.5C 280.167,1.16667 278.833,2.83333 277.5,4.5C 275.833,4.5 274.167,4.5 272.5,4.5C 273.833,2.83333 275.167,1.16667 276.5,-0.5 Z"/></g>
<g><path style="opacity:0.022" fill="#43443f" d="M 296.5,-0.5 C 298.167,-0.5 299.833,-0.5 301.5,-0.5C 300.167,1.16667 298.833,2.83333 297.5,4.5C 295.833,4.5 294.167,4.5 292.5,4.5C 293.833,2.83333 295.167,1.16667 296.5,-0.5 Z"/></g>
<g><path style="opacity:0.022" fill="#43443f" d="M 316.5,-0.5 C 318.167,-0.5 319.833,-0.5 321.5,-0.5C 320.167,1.16667 318.833,2.83333 317.5,4.5C 315.833,4.5 314.167,4.5 312.5,4.5C 313.833,2.83333 315.167,1.16667 316.5,-0.5 Z"/></g>
<g><path style="opacity:0.022" fill="#43443f" d="M 336.5,-0.5 C 338.167,-0.5 339.833,-0.5 341.5,-0.5C 340.167,1.16667 338.833,2.83333 337.5,4.5C 335.833,4.5 334.167,4.5 332.5,4.5C 333.833,2.83333 335.167,1.16667 336.5,-0.5 Z"/></g>
<g><path style="opacity:0.022" fill="#43443f" d="M 356.5,-0.5 C 358.167,-0.5 359.833,-0.5 361.5,-0.5C 360.167,1.16667 358.833,2.83333 357.5,4.5C 355.833,4.5 354.167,4.5 352.5,4.5C 353.833,2.83333 355.167,1.16667 356.5,-0.5 Z"/></g>
<g><path style="opacity:0.022" fill="#43443f" d="M 376.5,-0.5 C 378.167,-0.5 379.833,-0.5 381.5,-0.5C 380.167,1.16667 378.833,2.83333 377.5,4.5C 375.833,4.5 374.167,4.5 372.5,4.5C 373.833,2.83333 375.167,1.16667 376.5,-0.5 Z"/></g>
<g><path style="opacity:0.022" fill="#43443f" d="M 396.5,-0.5 C 398.167,-0.5 399.833,-0.5 401.5,-0.5C 400.167,1.16667 398.833,2.83333 397.5,4.5C 395.833,4.5 394.167,4.5 392.5,4.5C 393.833,2.83333 395.167,1.16667 396.5,-0.5 Z"/></g>
<g><path style="opacity:0.022" fill="#43443f" d="M 416.5,-0.5 C 418.167,-0.5 419.833,-0.5 421.5,-0.5C 420.167,1.16667 418.833,2.83333 417.5,4.5C 415.833,4.5 414.167,4.5 412.5,4.5C 413.833,2.83333 415.167,1.16667 416.5,-0.5 Z"/></g>
<g><path style="opacity:0.022" fill="#43443f" d="M 436.5,-0.5 C 438.167,-0.5 439.833,-0.5 441.5,-0.5C 440.167,1.16667 438.833,2.83333 437.5,4.5C 435.833,4.5 434.167,4.5 432.5,4.5C 433.833,2.83333 435.167,1.16667 436.5,-0.5 Z"/></g>
<g><path style="opacity:0.022" fill="#43443f" d="M 456.5,-0.5 C 458.167,-0.5 459.833,-0.5 461.5,-0.5C 460.167,1.16667 458.833,2.83333 457.5,4.5C 455.833,4.5 454.167,4.5 452.5,4.5C 453.833,2.83333 455.167,1.16667 456.5,-0.5 Z"/></g>
<g><path style="opacity:0.022" fill="#43443f" d="M 476.5,-0.5 C 478.167,-0.5 479.833,-0.5 481.5,-0.5C 479.833,1.5 478.167,3.5 476.5,5.5C 475.167,5.16667 473.833,4.83333 472.5,4.5C 473.833,2.83333 475.167,1.16667 476.5,-0.5 Z"/></g>
<g><path style="opacity:0.022" fill="#43443f" d="M 496.5,-0.5 C 498.167,-0.5 499.833,-0.5 501.5,-0.5C 496.5,5.16667 491.167,10.5 485.5,15.5C 484.596,14.791 484.263,13.791 484.5,12.5C 488.5,8.16667 492.5,3.83333 496.5,-0.5 Z"/></g>
<g><path style="opacity:0.969" fill="#000000" d="M 37.5,4.5 C 42.5,4.5 47.5,4.5 52.5,4.5C 54.1667,4.5 55.8333,4.5 57.5,4.5C 62.5,4.5 67.5,4.5 72.5,4.5C 74.1667,4.5 75.8333,4.5 77.5,4.5C 82.5,4.5 87.5,4.5 92.5,4.5C 94.1667,4.5 95.8333,4.5 97.5,4.5C 102.5,4.5 107.5,4.5 112.5,4.5C 114.167,4.5 115.833,4.5 117.5,4.5C 122.5,4.5 127.5,4.5 132.5,4.5C 134.167,4.5 135.833,4.5 137.5,4.5C 142.5,4.5 147.5,4.5 152.5,4.5C 154.167,4.5 155.833,4.5 157.5,4.5C 162.5,4.5 167.5,4.5 172.5,4.5C 174.167,4.5 175.833,4.5 177.5,4.5C 182.5,4.5 187.5,4.5 192.5,4.5C 194.167,4.5 195.833,4.5 197.5,4.5C 202.5,4.5 207.5,4.5 212.5,4.5C 214.167,4.5 215.833,4.5 217.5,4.5C 222.5,4.5 227.5,4.5 232.5,4.5C 234.167,4.5 235.833,4.5 237.5,4.5C 242.5,4.5 247.5,4.5 252.5,4.5C 254.167,4.5 255.833,4.5 257.5,4.5C 262.5,4.5 267.5,4.5 272.5,4.5C 274.167,4.5 275.833,4.5 277.5,4.5C 282.5,4.5 287.5,4.5 292.5,4.5C 294.167,4.5 295.833,4.5 297.5,4.5C 302.5,4.5 307.5,4.5 312.5,4.5C 314.167,4.5 315.833,4.5 317.5,4.5C 322.5,4.5 327.5,4.5 332.5,4.5C 334.167,4.5 335.833,4.5 337.5,4.5C 342.5,4.5 347.5,4.5 352.5,4.5C 354.167,4.5 355.833,4.5 357.5,4.5C 362.5,4.5 367.5,4.5 372.5,4.5C 374.167,4.5 375.833,4.5 377.5,4.5C 382.5,4.5 387.5,4.5 392.5,4.5C 394.167,4.5 395.833,4.5 397.5,4.5C 402.5,4.5 407.5,4.5 412.5,4.5C 414.167,4.5 415.833,4.5 417.5,4.5C 422.5,4.5 427.5,4.5 432.5,4.5C 434.167,4.5 435.833,4.5 437.5,4.5C 442.5,4.5 447.5,4.5 452.5,4.5C 454.167,4.5 455.833,4.5 457.5,4.5C 462.5,4.5 467.5,4.5 472.5,4.5C 473.833,4.83333 475.167,5.16667 476.5,5.5C 479.784,7.11698 482.451,9.45031 484.5,12.5C 484.263,13.791 484.596,14.791 485.5,15.5C 485.808,20.3708 484.975,25.0374 483,29.5C 479.985,32.8777 477.485,36.5444 475.5,40.5C 474.833,40.5 474.5,40.8333 474.5,41.5C 473.833,41.5 473.5,41.8333 473.5,42.5C 472.833,42.5 472.5,42.8333 472.5,43.5C 471.833,43.5 471.5,43.8333 471.5,44.5C 466.58,50.685 461.913,57.0184 457.5,63.5C 439.711,84.9476 422.711,106.948 406.5,129.5C 405.833,129.5 405.5,129.833 405.5,130.5C 404.833,130.5 404.5,130.833 404.5,131.5C 403.833,131.5 403.5,131.833 403.5,132.5C 398.092,138.329 393.425,144.663 389.5,151.5C 371.711,172.948 354.711,194.948 338.5,217.5C 337.833,217.5 337.5,217.833 337.5,218.5C 336.833,218.5 336.5,218.833 336.5,219.5C 335.833,219.5 335.5,219.833 335.5,220.5C 334.833,220.5 334.5,220.833 334.5,221.5C 331.175,224.485 329.175,228.152 328.5,232.5C 328.5,237.5 328.5,242.5 328.5,247.5C 328.5,249.167 328.5,250.833 328.5,252.5C 328.5,257.5 328.5,262.5 328.5,267.5C 328.5,269.167 328.5,270.833 328.5,272.5C 328.5,277.5 328.5,282.5 328.5,287.5C 328.5,289.167 328.5,290.833 328.5,292.5C 328.5,297.5 328.5,302.5 328.5,307.5C 328.5,309.167 328.5,310.833 328.5,312.5C 328.5,317.5 328.5,322.5 328.5,327.5C 328.5,329.167 328.5,330.833 328.5,332.5C 328.5,337.5 328.5,342.5 328.5,347.5C 328.5,349.167 328.5,350.833 328.5,352.5C 328.5,357.5 328.5,362.5 328.5,367.5C 328.5,369.167 328.5,370.833 328.5,372.5C 328.5,377.5 328.5,382.5 328.5,387.5C 328.5,389.167 328.5,390.833 328.5,392.5C 328.5,397.5 328.5,402.5 328.5,407.5C 328.5,409.167 328.5,410.833 328.5,412.5C 328.5,417.5 328.5,422.5 328.5,427.5C 327.833,429.833 327.167,432.167 326.5,434.5C 324.833,436.833 322.833,438.833 320.5,440.5C 316.7,442.234 313.034,444.234 309.5,446.5C 308.833,446.5 308.5,446.833 308.5,447.5C 296.372,453.396 284.706,460.063 273.5,467.5C 269.883,468.642 266.55,470.308 263.5,472.5C 262.833,472.5 262.5,472.833 262.5,473.5C 250.372,479.396 238.706,486.063 227.5,493.5C 223.883,494.642 220.55,496.308 217.5,498.5C 216.833,498.5 216.5,498.833 216.5,499.5C 212.22,501.64 207.886,503.807 203.5,506C 200.518,506.498 197.518,506.665 194.5,506.5C 193.791,505.596 192.791,505.263 191.5,505.5C 188.48,503.477 186.146,500.81 184.5,497.5C 184.068,496.29 183.401,495.29 182.5,494.5C 182.5,489.5 182.5,484.5 182.5,479.5C 182.5,477.833 182.5,476.167 182.5,474.5C 182.5,469.5 182.5,464.5 182.5,459.5C 182.5,457.833 182.5,456.167 182.5,454.5C 182.5,449.5 182.5,444.5 182.5,439.5C 182.5,437.833 182.5,436.167 182.5,434.5C 182.5,429.5 182.5,424.5 182.5,419.5C 182.5,417.833 182.5,416.167 182.5,414.5C 182.5,409.5 182.5,404.5 182.5,399.5C 182.5,397.833 182.5,396.167 182.5,394.5C 182.5,389.5 182.5,384.5 182.5,379.5C 182.5,377.833 182.5,376.167 182.5,374.5C 182.5,369.5 182.5,364.5 182.5,359.5C 182.5,357.833 182.5,356.167 182.5,354.5C 182.5,349.5 182.5,344.5 182.5,339.5C 182.5,337.833 182.5,336.167 182.5,334.5C 182.5,329.5 182.5,324.5 182.5,319.5C 182.5,317.833 182.5,316.167 182.5,314.5C 182.5,309.5 182.5,304.5 182.5,299.5C 182.5,297.833 182.5,296.167 182.5,294.5C 182.5,289.5 182.5,284.5 182.5,279.5C 182.5,277.833 182.5,276.167 182.5,274.5C 182.5,269.5 182.5,264.5 182.5,259.5C 182.5,257.833 182.5,256.167 182.5,254.5C 182.5,249.5 182.5,244.5 182.5,239.5C 182.5,237.833 182.5,236.167 182.5,234.5C 183.075,229.762 181.408,226.095 177.5,223.5C 177.068,222.29 176.401,221.29 175.5,220.5C 173.5,217.833 171.5,215.167 169.5,212.5C 168.833,211.167 167.833,210.167 166.5,209.5C 164.878,206.545 162.878,203.878 160.5,201.5C 160.068,200.29 159.401,199.29 158.5,198.5C 156.397,195.28 154.064,192.28 151.5,189.5C 151.167,188.5 150.5,187.833 149.5,187.5C 147.518,184.19 145.185,181.19 142.5,178.5C 142.573,176.973 141.906,175.973 140.5,175.5C 138.853,172.527 136.853,169.86 134.5,167.5C 133.833,166.167 132.833,165.167 131.5,164.5C 129.984,161.467 127.984,158.8 125.5,156.5C 125.573,154.973 124.906,153.973 123.5,153.5C 121.518,150.19 119.185,147.19 116.5,144.5C 116.068,143.29 115.401,142.29 114.5,141.5C 112.5,138.833 110.5,136.167 108.5,133.5C 107.833,132.167 106.833,131.167 105.5,130.5C 103.853,127.527 101.853,124.86 99.5,122.5C 99.0679,121.29 98.4013,120.29 97.5,119.5C 95.6281,116.418 93.2948,113.751 90.5,111.5C 90.573,109.973 89.9063,108.973 88.5,108.5C 86.5179,105.19 84.1846,102.19 81.5,99.5C 81.0679,98.2905 80.4013,97.2905 79.5,96.5C 77.5,93.8333 75.5,91.1667 73.5,88.5C 72.8333,87.1667 71.8333,86.1667 70.5,85.5C 68.8777,82.5451 66.8777,79.8785 64.5,77.5C 64.0679,76.2905 63.4013,75.2905 62.5,74.5C 60.3971,71.2802 58.0638,68.2802 55.5,65.5C 55.1667,64.5 54.5,63.8333 53.5,63.5C 51.5179,60.1897 49.1846,57.1897 46.5,54.5C 46.573,52.9731 45.9063,51.9731 44.5,51.5C 42.8532,48.5265 40.8532,45.8599 38.5,43.5C 37.8333,42.1667 36.8333,41.1667 35.5,40.5C 33.984,37.4669 31.984,34.8003 29.5,32.5C 29.573,30.9731 28.9063,29.9731 27.5,29.5C 25.5205,24.9296 25.1872,20.263 26.5,15.5C 28.5,10.1667 32.1667,6.5 37.5,4.5 Z M 83.5,37.5 C 88.5,37.5 93.5,37.5 98.5,37.5C 94.8333,41.8333 90.8333,45.8333 86.5,49.5C 84.016,47.1997 82.016,44.5331 80.5,41.5C 81.5,40.1667 82.5,38.8333 83.5,37.5 Z M 103.5,37.5 C 108.5,37.5 113.5,37.5 118.5,37.5C 110.833,45.5 103.167,53.5 95.5,61.5C 92.8154,58.8103 90.4821,55.8103 88.5,52.5C 93.8333,47.8333 98.8333,42.8333 103.5,37.5 Z M 123.5,37.5 C 128.5,37.5 133.5,37.5 138.5,37.5C 127.167,49.5 115.5,61.1667 103.5,72.5C 101.5,69.8333 99.5,67.1667 97.5,64.5C 106.167,55.5 114.833,46.5 123.5,37.5 Z M 143.5,37.5 C 148.5,37.5 153.5,37.5 158.5,37.5C 143.5,53.1667 128.167,68.5 112.5,83.5C 110.147,81.1401 108.147,78.4735 106.5,75.5C 118.833,62.8333 131.167,50.1667 143.5,37.5 Z M 163.5,37.5 C 168.5,37.5 173.5,37.5 178.5,37.5C 159.5,56.8333 140.5,76.1667 121.5,95.5C 118.936,92.7198 116.603,89.7198 114.5,86.5C 131.167,70.5 147.5,54.1667 163.5,37.5 Z M 183.5,37.5 C 188.5,37.5 193.5,37.5 198.5,37.5C 175.833,60.5 153.167,83.5 130.5,106.5C 127.815,103.81 125.482,100.81 123.5,97.5C 143.833,77.8333 163.833,57.8333 183.5,37.5 Z M 203.5,37.5 C 208.5,37.5 213.5,37.5 218.5,37.5C 192.167,64.5 165.5,91.1667 138.5,117.5C 136.147,115.14 134.147,112.473 132.5,109.5C 156.167,85.5 179.833,61.5 203.5,37.5 Z M 223.5,37.5 C 228.5,37.5 233.5,37.5 238.5,37.5C 208.5,68.1667 178.167,98.5 147.5,128.5C 145.177,125.874 142.843,123.207 140.5,120.5C 168.5,93.1667 196.167,65.5 223.5,37.5 Z M 243.5,37.5 C 248.5,37.5 253.5,37.5 258.5,37.5C 224.5,71.8333 190.5,106.167 156.5,140.5C 153.815,137.81 151.482,134.81 149.5,131.5C 181.167,100.5 212.5,69.1667 243.5,37.5 Z M 263.5,37.5 C 268.5,37.5 273.5,37.5 278.5,37.5C 240.833,75.8333 202.833,113.833 164.5,151.5C 162.5,148.833 160.5,146.167 158.5,143.5C 193.5,108.167 228.5,72.8333 263.5,37.5 Z M 283.5,37.5 C 288.5,37.5 293.5,37.5 298.5,37.5C 257.167,79.5 215.5,121.167 173.5,162.5C 171.122,160.122 169.122,157.455 167.5,154.5C 206.167,115.5 244.833,76.5 283.5,37.5 Z M 303.5,37.5 C 308.5,37.5 313.5,37.5 318.5,37.5C 273.167,83.1667 227.833,128.833 182.5,174.5C 179.815,171.81 177.482,168.81 175.5,165.5C 218.5,123.167 261.167,80.5 303.5,37.5 Z M 323.5,37.5 C 328.5,37.5 333.5,37.5 338.5,37.5C 289.5,87.1667 240.167,136.5 190.5,185.5C 188.474,182.482 186.474,179.482 184.5,176.5C 231.167,130.5 277.5,84.1667 323.5,37.5 Z M 343.5,37.5 C 348.5,37.5 353.5,37.5 358.5,37.5C 305.833,90.8333 252.833,143.833 199.5,196.5C 197.147,194.14 195.147,191.473 193.5,188.5C 243.5,138.167 293.5,87.8333 343.5,37.5 Z M 363.5,37.5 C 368.5,37.5 373.5,37.5 378.5,37.5C 322.167,94.5 265.5,151.167 208.5,207.5C 205.705,205.249 203.372,202.582 201.5,199.5C 255.833,145.833 309.833,91.8333 363.5,37.5 Z M 383.5,37.5 C 388.5,37.5 393.5,37.5 398.5,37.5C 337.833,98.8333 276.833,159.833 215.5,220.5C 214.361,216.888 212.694,213.554 210.5,210.5C 268.5,153.167 326.167,95.5 383.5,37.5 Z M 403.5,37.5 C 408.5,37.5 413.5,37.5 418.5,37.5C 351.167,105.5 283.5,173.167 215.5,240.5C 215.5,235.5 215.5,230.5 215.5,225.5C 278.5,163.167 341.167,100.5 403.5,37.5 Z M 423.5,37.5 C 427.514,37.3345 431.514,37.5012 435.5,38C 429.999,44.9984 424.332,51.8318 418.5,58.5C 350.833,125.833 283.167,193.167 215.5,260.5C 215.5,255.5 215.5,250.5 215.5,245.5C 285.167,176.5 354.5,107.167 423.5,37.5 Z M 400.5,81.5 C 384.569,103.678 367.902,125.344 350.5,146.5C 305.5,191.167 260.5,235.833 215.5,280.5C 215.5,275.5 215.5,270.5 215.5,265.5C 277.167,204.167 338.833,142.833 400.5,81.5 Z M 330.5,171.5 C 320.957,185.223 310.79,198.556 300,211.5C 297.682,214.469 296.182,217.802 295.5,221.5C 268.833,247.833 242.167,274.167 215.5,300.5C 215.5,295.5 215.5,290.5 215.5,285.5C 253.833,247.5 292.167,209.5 330.5,171.5 Z M 295.5,226.5 C 295.5,231.5 295.5,236.5 295.5,241.5C 268.833,267.833 242.167,294.167 215.5,320.5C 215.5,315.5 215.5,310.5 215.5,305.5C 242.167,279.167 268.833,252.833 295.5,226.5 Z M 295.5,246.5 C 295.5,251.5 295.5,256.5 295.5,261.5C 268.833,287.833 242.167,314.167 215.5,340.5C 215.5,335.5 215.5,330.5 215.5,325.5C 242.167,299.167 268.833,272.833 295.5,246.5 Z M 295.5,266.5 C 295.5,271.5 295.5,276.5 295.5,281.5C 268.833,307.833 242.167,334.167 215.5,360.5C 215.5,355.5 215.5,350.5 215.5,345.5C 242.167,319.167 268.833,292.833 295.5,266.5 Z M 295.5,286.5 C 295.5,291.5 295.5,296.5 295.5,301.5C 268.833,327.833 242.167,354.167 215.5,380.5C 215.5,375.5 215.5,370.5 215.5,365.5C 242.167,339.167 268.833,312.833 295.5,286.5 Z M 295.5,306.5 C 295.5,311.5 295.5,316.5 295.5,321.5C 268.833,347.833 242.167,374.167 215.5,400.5C 215.5,395.5 215.5,390.5 215.5,385.5C 242.167,359.167 268.833,332.833 295.5,306.5 Z M 295.5,326.5 C 295.5,331.5 295.5,336.5 295.5,341.5C 268.833,367.833 242.167,394.167 215.5,420.5C 215.5,415.5 215.5,410.5 215.5,405.5C 242.167,379.167 268.833,352.833 295.5,326.5 Z M 295.5,346.5 C 295.5,351.5 295.5,356.5 295.5,361.5C 268.833,387.833 242.167,414.167 215.5,440.5C 215.5,435.5 215.5,430.5 215.5,425.5C 242.167,399.167 268.833,372.833 295.5,346.5 Z M 295.5,366.5 C 295.5,371.5 295.5,376.5 295.5,381.5C 268.833,407.5 242.5,433.833 216.5,460.5C 215.513,455.695 215.179,450.695 215.5,445.5C 242.167,419.167 268.833,392.833 295.5,366.5 Z M 295.5,386.5 C 295.5,391.5 295.5,396.5 295.5,401.5C 284.167,412.167 273.167,423.167 262.5,434.5C 251.462,441.352 240.129,447.686 228.5,453.5C 250.5,430.833 272.833,408.5 295.5,386.5 Z M 295.5,406.5 C 295.82,409.898 295.487,413.232 294.5,416.5C 288.1,420.699 281.433,424.366 274.5,427.5C 281.167,420.167 288.167,413.167 295.5,406.5 Z"/></g>
<g><path style="opacity:0.022" fill="#43433f" d="M 511.5,5.5 C 511.5,7.16667 511.5,8.83333 511.5,10.5C 493.5,28.1667 475.5,45.8333 457.5,63.5C 461.913,57.0184 466.58,50.685 471.5,44.5C 472.167,44.5 472.5,44.1667 472.5,43.5C 473.167,43.5 473.5,43.1667 473.5,42.5C 474.167,42.5 474.5,42.1667 474.5,41.5C 475.167,41.5 475.5,41.1667 475.5,40.5C 487.5,28.8333 499.5,17.1667 511.5,5.5 Z"/></g>
<g><path style="opacity:0.022" fill="#43433f" d="M 511.5,25.5 C 511.5,27.1667 511.5,28.8333 511.5,30.5C 470.833,70.8333 430.167,111.167 389.5,151.5C 393.425,144.663 398.092,138.329 403.5,132.5C 404.167,132.5 404.5,132.167 404.5,131.5C 405.167,131.5 405.5,131.167 405.5,130.5C 406.167,130.5 406.5,130.167 406.5,129.5C 441.5,94.8333 476.5,60.1667 511.5,25.5 Z"/></g>
<g><path style="opacity:0.022" fill="#43433f" d="M 27.5,29.5 C 28.9063,29.9731 29.573,30.9731 29.5,32.5C 19.5,42.1667 9.5,51.8333 -0.5,61.5C -0.5,59.8333 -0.5,58.1667 -0.5,56.5C 8.83333,47.5 18.1667,38.5 27.5,29.5 Z"/></g>
<g><path style="opacity:0.022" fill="#43443f" d="M 78.5,37.5 C 80.1667,37.5 81.8333,37.5 83.5,37.5C 82.5,38.8333 81.5,40.1667 80.5,41.5C 79.1667,40.8333 78.1667,39.8333 77.5,38.5C 78.1667,38.5 78.5,38.1667 78.5,37.5 Z"/></g>
<g><path style="opacity:0.022" fill="#43443f" d="M 98.5,37.5 C 100.167,37.5 101.833,37.5 103.5,37.5C 98.8333,42.8333 93.8333,47.8333 88.5,52.5C 87.0937,52.0269 86.427,51.0269 86.5,49.5C 90.8333,45.8333 94.8333,41.8333 98.5,37.5 Z"/></g>
<g><path style="opacity:0.022" fill="#43433f" d="M 118.5,37.5 C 120.167,37.5 121.833,37.5 123.5,37.5C 114.833,46.5 106.167,55.5 97.5,64.5C 96.5987,63.7095 95.9321,62.7095 95.5,61.5C 103.167,53.5 110.833,45.5 118.5,37.5 Z"/></g>
<g><path style="opacity:0.022" fill="#43443f" d="M 138.5,37.5 C 140.167,37.5 141.833,37.5 143.5,37.5C 131.167,50.1667 118.833,62.8333 106.5,75.5C 105.167,74.8333 104.167,73.8333 103.5,72.5C 115.5,61.1667 127.167,49.5 138.5,37.5 Z"/></g>
<g><path style="opacity:0.022" fill="#43443f" d="M 158.5,37.5 C 160.167,37.5 161.833,37.5 163.5,37.5C 147.5,54.1667 131.167,70.5 114.5,86.5C 113.599,85.7095 112.932,84.7095 112.5,83.5C 128.167,68.5 143.5,53.1667 158.5,37.5 Z"/></g>
<g><path style="opacity:0.022" fill="#43443f" d="M 178.5,37.5 C 180.167,37.5 181.833,37.5 183.5,37.5C 163.833,57.8333 143.833,77.8333 123.5,97.5C 122.5,97.1667 121.833,96.5 121.5,95.5C 140.5,76.1667 159.5,56.8333 178.5,37.5 Z"/></g>
<g><path style="opacity:0.022" fill="#43443f" d="M 198.5,37.5 C 200.167,37.5 201.833,37.5 203.5,37.5C 179.833,61.5 156.167,85.5 132.5,109.5C 131.094,109.027 130.427,108.027 130.5,106.5C 153.167,83.5 175.833,60.5 198.5,37.5 Z"/></g>
<g><path style="opacity:0.022" fill="#43443f" d="M 218.5,37.5 C 220.167,37.5 221.833,37.5 223.5,37.5C 196.167,65.5 168.5,93.1667 140.5,120.5C 139.833,119.5 139.167,118.5 138.5,117.5C 165.5,91.1667 192.167,64.5 218.5,37.5 Z"/></g>
<g><path style="opacity:0.022" fill="#43443f" d="M 238.5,37.5 C 240.167,37.5 241.833,37.5 243.5,37.5C 212.5,69.1667 181.167,100.5 149.5,131.5C 148.094,131.027 147.427,130.027 147.5,128.5C 178.167,98.5 208.5,68.1667 238.5,37.5 Z"/></g>
<g><path style="opacity:0.022" fill="#43443f" d="M 258.5,37.5 C 260.167,37.5 261.833,37.5 263.5,37.5C 228.5,72.8333 193.5,108.167 158.5,143.5C 157.599,142.71 156.932,141.71 156.5,140.5C 190.5,106.167 224.5,71.8333 258.5,37.5 Z"/></g>
<g><path style="opacity:0.022" fill="#43443f" d="M 278.5,37.5 C 280.167,37.5 281.833,37.5 283.5,37.5C 244.833,76.5 206.167,115.5 167.5,154.5C 166.167,153.833 165.167,152.833 164.5,151.5C 202.833,113.833 240.833,75.8333 278.5,37.5 Z"/></g>
<g><path style="opacity:0.022" fill="#43443f" d="M 298.5,37.5 C 300.167,37.5 301.833,37.5 303.5,37.5C 261.167,80.5 218.5,123.167 175.5,165.5C 174.599,164.71 173.932,163.71 173.5,162.5C 215.5,121.167 257.167,79.5 298.5,37.5 Z"/></g>
<g><path style="opacity:0.022" fill="#43443f" d="M 318.5,37.5 C 320.167,37.5 321.833,37.5 323.5,37.5C 277.5,84.1667 231.167,130.5 184.5,176.5C 183.5,176.167 182.833,175.5 182.5,174.5C 227.833,128.833 273.167,83.1667 318.5,37.5 Z"/></g>
<g><path style="opacity:0.022" fill="#43433f" d="M 338.5,37.5 C 340.167,37.5 341.833,37.5 343.5,37.5C 293.5,87.8333 243.5,138.167 193.5,188.5C 192.167,187.833 191.167,186.833 190.5,185.5C 240.167,136.5 289.5,87.1667 338.5,37.5 Z"/></g>
<g><path style="opacity:0.022" fill="#43443f" d="M 358.5,37.5 C 360.167,37.5 361.833,37.5 363.5,37.5C 309.833,91.8333 255.833,145.833 201.5,199.5C 200.833,198.5 200.167,197.5 199.5,196.5C 252.833,143.833 305.833,90.8333 358.5,37.5 Z"/></g>
<g><path style="opacity:0.022" fill="#43443f" d="M 378.5,37.5 C 380.167,37.5 381.833,37.5 383.5,37.5C 326.167,95.5 268.5,153.167 210.5,210.5C 209.094,210.027 208.427,209.027 208.5,207.5C 265.5,151.167 322.167,94.5 378.5,37.5 Z"/></g>
<g><path style="opacity:0.022" fill="#43443f" d="M 398.5,37.5 C 400.167,37.5 401.833,37.5 403.5,37.5C 341.167,100.5 278.5,163.167 215.5,225.5C 215.5,223.833 215.5,222.167 215.5,220.5C 276.833,159.833 337.833,98.8333 398.5,37.5 Z"/></g>
<g><path style="opacity:0.022" fill="#43443f" d="M 418.5,37.5 C 420.167,37.5 421.833,37.5 423.5,37.5C 354.5,107.167 285.167,176.5 215.5,245.5C 215.5,243.833 215.5,242.167 215.5,240.5C 283.5,173.167 351.167,105.5 418.5,37.5 Z"/></g>
<g><path style="opacity:0.022" fill="#43443f" d="M 35.5,40.5 C 36.8333,41.1667 37.8333,42.1667 38.5,43.5C 25.5,56.1667 12.5,68.8333 -0.5,81.5C -0.5,79.8333 -0.5,78.1667 -0.5,76.5C 11.8333,64.8333 23.8333,52.8333 35.5,40.5 Z"/></g>
<g><path style="opacity:0.022" fill="#43433f" d="M 511.5,45.5 C 511.5,47.1667 511.5,48.8333 511.5,50.5C 450.5,111.167 389.5,171.833 328.5,232.5C 329.175,228.152 331.175,224.485 334.5,221.5C 335.167,221.5 335.5,221.167 335.5,220.5C 336.167,220.5 336.5,220.167 336.5,219.5C 337.167,219.5 337.5,219.167 337.5,218.5C 338.167,218.5 338.5,218.167 338.5,217.5C 396.167,160.167 453.833,102.833 511.5,45.5 Z"/></g>
<g><path style="opacity:0.022" fill="#43443f" d="M 44.5,51.5 C 45.9063,51.9731 46.573,52.9731 46.5,54.5C 31.1667,70.5 15.5,86.1667 -0.5,101.5C -0.5,99.8333 -0.5,98.1667 -0.5,96.5C 14.8333,81.8333 29.8333,66.8333 44.5,51.5 Z"/></g>
<g><path style="opacity:0.022" fill="#43433f" d="M 418.5,58.5 C 414.087,64.9816 409.42,71.315 404.5,77.5C 403.833,77.5 403.5,77.8333 403.5,78.5C 402.833,78.5 402.5,78.8333 402.5,79.5C 401.833,79.5 401.5,79.8333 401.5,80.5C 400.833,80.5 400.5,80.8333 400.5,81.5C 338.833,142.833 277.167,204.167 215.5,265.5C 215.5,263.833 215.5,262.167 215.5,260.5C 283.167,193.167 350.833,125.833 418.5,58.5 Z"/></g>
<g><path style="opacity:0.022" fill="#43443f" d="M 53.5,63.5 C 54.5,63.8333 55.1667,64.5 55.5,65.5C 37.1667,84.5 18.5,103.167 -0.5,121.5C -0.5,119.833 -0.5,118.167 -0.5,116.5C 17.5,98.8333 35.5,81.1667 53.5,63.5 Z"/></g>
<g><path style="opacity:0.022" fill="#43443f" d="M 511.5,65.5 C 511.5,67.1667 511.5,68.8333 511.5,70.5C 450.5,131.167 389.5,191.833 328.5,252.5C 328.5,250.833 328.5,249.167 328.5,247.5C 389.5,186.833 450.5,126.167 511.5,65.5 Z"/></g>
<g><path style="opacity:0.022" fill="#43443f" d="M 62.5,74.5 C 63.4013,75.2905 64.0679,76.2905 64.5,77.5C 42.8333,98.8333 21.1667,120.167 -0.5,141.5C -0.5,139.833 -0.5,138.167 -0.5,136.5C 20.5,115.833 41.5,95.1667 62.5,74.5 Z"/></g>
<g><path style="opacity:0.022" fill="#43443f" d="M 70.5,85.5 C 71.8333,86.1667 72.8333,87.1667 73.5,88.5C 48.8333,112.833 24.1667,137.167 -0.5,161.5C -0.5,159.833 -0.5,158.167 -0.5,156.5C 23.5,133.167 47.1667,109.5 70.5,85.5 Z"/></g>
<g><path style="opacity:0.022" fill="#43443f" d="M 511.5,85.5 C 511.5,87.1667 511.5,88.8333 511.5,90.5C 450.5,151.167 389.5,211.833 328.5,272.5C 328.5,270.833 328.5,269.167 328.5,267.5C 389.5,206.833 450.5,146.167 511.5,85.5 Z"/></g>
<g><path style="opacity:0.022" fill="#43443f" d="M 79.5,96.5 C 80.4013,97.2905 81.0679,98.2905 81.5,99.5C 54.5,127.167 27.1667,154.5 -0.5,181.5C -0.5,179.833 -0.5,178.167 -0.5,176.5C 26.5,150.167 53.1667,123.5 79.5,96.5 Z"/></g>
<g><path style="opacity:0.022" fill="#43443f" d="M 511.5,105.5 C 511.5,107.167 511.5,108.833 511.5,110.5C 450.5,171.167 389.5,231.833 328.5,292.5C 328.5,290.833 328.5,289.167 328.5,287.5C 389.5,226.833 450.5,166.167 511.5,105.5 Z"/></g>
<g><path style="opacity:0.022" fill="#43443f" d="M 88.5,108.5 C 89.9063,108.973 90.573,109.973 90.5,111.5C 60.1667,141.5 29.8333,171.5 -0.5,201.5C -0.5,199.833 -0.5,198.167 -0.5,196.5C 29.1667,167.167 58.8333,137.833 88.5,108.5 Z"/></g>
<g><path style="opacity:0.022" fill="#43433f" d="M 97.5,119.5 C 98.4013,120.29 99.0679,121.29 99.5,122.5C 66.1667,155.5 32.8333,188.5 -0.5,221.5C -0.5,219.833 -0.5,218.167 -0.5,216.5C 32.1667,184.167 64.8333,151.833 97.5,119.5 Z"/></g>
<g><path style="opacity:0.022" fill="#43443f" d="M 511.5,125.5 C 511.5,127.167 511.5,128.833 511.5,130.5C 450.5,191.167 389.5,251.833 328.5,312.5C 328.5,310.833 328.5,309.167 328.5,307.5C 389.5,246.833 450.5,186.167 511.5,125.5 Z"/></g>
<g><path style="opacity:0.022" fill="#43433f" d="M 105.5,130.5 C 106.833,131.167 107.833,132.167 108.5,133.5C 72.1667,169.5 35.8333,205.5 -0.5,241.5C -0.5,239.833 -0.5,238.167 -0.5,236.5C 35.1667,201.5 70.5,166.167 105.5,130.5 Z"/></g>
<g><path style="opacity:0.022" fill="#43433f" d="M 114.5,141.5 C 115.401,142.29 116.068,143.29 116.5,144.5C 77.8333,183.833 38.8333,222.833 -0.5,261.5C -0.5,259.833 -0.5,258.167 -0.5,256.5C 38.1667,218.5 76.5,180.167 114.5,141.5 Z"/></g>
<g><path style="opacity:0.022" fill="#43443f" d="M 511.5,145.5 C 511.5,147.167 511.5,148.833 511.5,150.5C 450.5,211.167 389.5,271.833 328.5,332.5C 328.5,330.833 328.5,329.167 328.5,327.5C 389.5,266.833 450.5,206.167 511.5,145.5 Z"/></g>
<g><path style="opacity:0.022" fill="#43433f" d="M 350.5,146.5 C 345.191,153.481 339.857,160.481 334.5,167.5C 333.833,167.5 333.5,167.833 333.5,168.5C 332.833,168.5 332.5,168.833 332.5,169.5C 331.833,169.5 331.5,169.833 331.5,170.5C 330.833,170.5 330.5,170.833 330.5,171.5C 292.167,209.5 253.833,247.5 215.5,285.5C 215.5,283.833 215.5,282.167 215.5,280.5C 260.5,235.833 305.5,191.167 350.5,146.5 Z"/></g>
<g><path style="opacity:0.022" fill="#43433f" d="M 123.5,153.5 C 124.906,153.973 125.573,154.973 125.5,156.5C 83.5,198.167 41.5,239.833 -0.5,281.5C -0.5,279.833 -0.5,278.167 -0.5,276.5C 40.8333,235.5 82.1667,194.5 123.5,153.5 Z"/></g>
<g><path style="opacity:0.022" fill="#43443f" d="M 131.5,164.5 C 132.833,165.167 133.833,166.167 134.5,167.5C 89.5,212.167 44.5,256.833 -0.5,301.5C -0.5,299.833 -0.5,298.167 -0.5,296.5C 43.8333,252.833 87.8333,208.833 131.5,164.5 Z"/></g>
<g><path style="opacity:0.022" fill="#43443f" d="M 511.5,165.5 C 511.5,167.167 511.5,168.833 511.5,170.5C 450.5,231.167 389.5,291.833 328.5,352.5C 328.5,350.833 328.5,349.167 328.5,347.5C 389.5,286.833 450.5,226.167 511.5,165.5 Z"/></g>
<g><path style="opacity:0.022" fill="#43443f" d="M 140.5,175.5 C 141.906,175.973 142.573,176.973 142.5,178.5C 95.1667,226.5 47.5,274.167 -0.5,321.5C -0.5,319.833 -0.5,318.167 -0.5,316.5C 46.8333,269.833 93.8333,222.833 140.5,175.5 Z"/></g>
<g><path style="opacity:0.022" fill="#43443f" d="M 511.5,185.5 C 511.5,187.167 511.5,188.833 511.5,190.5C 450.5,251.167 389.5,311.833 328.5,372.5C 328.5,370.833 328.5,369.167 328.5,367.5C 389.5,306.833 450.5,246.167 511.5,185.5 Z"/></g>
<g><path style="opacity:0.022" fill="#43443f" d="M 149.5,187.5 C 150.5,187.833 151.167,188.5 151.5,189.5C 101.167,240.5 50.5,291.167 -0.5,341.5C -0.5,339.833 -0.5,338.167 -0.5,336.5C 49.5,286.833 99.5,237.167 149.5,187.5 Z"/></g>
<g><path style="opacity:0.022" fill="#43443f" d="M 158.5,198.5 C 159.401,199.29 160.068,200.29 160.5,201.5C 106.833,254.833 53.1667,308.167 -0.5,361.5C -0.5,359.833 -0.5,358.167 -0.5,356.5C 52.5,303.833 105.5,251.167 158.5,198.5 Z"/></g>
<g><path style="opacity:0.022" fill="#43443f" d="M 511.5,205.5 C 511.5,207.167 511.5,208.833 511.5,210.5C 450.5,271.167 389.5,331.833 328.5,392.5C 328.5,390.833 328.5,389.167 328.5,387.5C 389.5,326.833 450.5,266.167 511.5,205.5 Z"/></g>
<g><path style="opacity:0.022" fill="#43443f" d="M 166.5,209.5 C 167.833,210.167 168.833,211.167 169.5,212.5C 112.833,268.833 56.1667,325.167 -0.5,381.5C -0.5,379.833 -0.5,378.167 -0.5,376.5C 55.5,321.167 111.167,265.5 166.5,209.5 Z"/></g>
<g><path style="opacity:0.022" fill="#43443f" d="M 175.5,220.5 C 176.401,221.29 177.068,222.29 177.5,223.5C 118.5,283.167 59.1667,342.5 -0.5,401.5C -0.5,399.833 -0.5,398.167 -0.5,396.5C 58.5,338.167 117.167,279.5 175.5,220.5 Z"/></g>
<g><path style="opacity:0.022" fill="#43443f" d="M 295.5,221.5 C 295.5,223.167 295.5,224.833 295.5,226.5C 268.833,252.833 242.167,279.167 215.5,305.5C 215.5,303.833 215.5,302.167 215.5,300.5C 242.167,274.167 268.833,247.833 295.5,221.5 Z"/></g>
<g><path style="opacity:0.022" fill="#43443f" d="M 511.5,225.5 C 511.5,227.167 511.5,228.833 511.5,230.5C 450.5,291.167 389.5,351.833 328.5,412.5C 328.5,410.833 328.5,409.167 328.5,407.5C 389.5,346.833 450.5,286.167 511.5,225.5 Z"/></g>
<g><path style="opacity:0.022" fill="#43443f" d="M 182.5,234.5 C 182.5,236.167 182.5,237.833 182.5,239.5C 121.5,300.167 60.5,360.833 -0.5,421.5C -0.5,419.833 -0.5,418.167 -0.5,416.5C 60.5,355.833 121.5,295.167 182.5,234.5 Z"/></g>
<g><path style="opacity:0.022" fill="#43443f" d="M 295.5,241.5 C 295.5,243.167 295.5,244.833 295.5,246.5C 268.833,272.833 242.167,299.167 215.5,325.5C 215.5,323.833 215.5,322.167 215.5,320.5C 242.167,294.167 268.833,267.833 295.5,241.5 Z"/></g>
<g><path style="opacity:0.022" fill="#43433f" d="M 511.5,245.5 C 511.5,247.167 511.5,248.833 511.5,250.5C 449.833,311.833 388.167,373.167 326.5,434.5C 327.167,432.167 327.833,429.833 328.5,427.5C 389.5,366.833 450.5,306.167 511.5,245.5 Z"/></g>
<g><path style="opacity:0.022" fill="#43443f" d="M 182.5,254.5 C 182.5,256.167 182.5,257.833 182.5,259.5C 121.5,320.167 60.5,380.833 -0.5,441.5C -0.5,439.833 -0.5,438.167 -0.5,436.5C 60.5,375.833 121.5,315.167 182.5,254.5 Z"/></g>
<g><path style="opacity:0.022" fill="#43443f" d="M 295.5,261.5 C 295.5,263.167 295.5,264.833 295.5,266.5C 268.833,292.833 242.167,319.167 215.5,345.5C 215.5,343.833 215.5,342.167 215.5,340.5C 242.167,314.167 268.833,287.833 295.5,261.5 Z"/></g>
<g><path style="opacity:0.022" fill="#43443f" d="M 511.5,265.5 C 511.5,267.167 511.5,268.833 511.5,270.5C 430.833,350.5 350.5,430.833 270.5,511.5C 268.833,511.5 267.167,511.5 265.5,511.5C 347.167,429.167 429.167,347.167 511.5,265.5 Z"/></g>
<g><path style="opacity:0.022" fill="#43443f" d="M 182.5,274.5 C 182.5,276.167 182.5,277.833 182.5,279.5C 121.5,340.167 60.5,400.833 -0.5,461.5C -0.5,459.833 -0.5,458.167 -0.5,456.5C 60.5,395.833 121.5,335.167 182.5,274.5 Z"/></g>
<g><path style="opacity:0.022" fill="#43443f" d="M 295.5,281.5 C 295.5,283.167 295.5,284.833 295.5,286.5C 268.833,312.833 242.167,339.167 215.5,365.5C 215.5,363.833 215.5,362.167 215.5,360.5C 242.167,334.167 268.833,307.833 295.5,281.5 Z"/></g>
<g><path style="opacity:0.022" fill="#43443f" d="M 511.5,285.5 C 511.5,287.167 511.5,288.833 511.5,290.5C 437.5,363.833 363.833,437.5 290.5,511.5C 288.833,511.5 287.167,511.5 285.5,511.5C 360.5,435.833 435.833,360.5 511.5,285.5 Z"/></g>
<g><path style="opacity:0.022" fill="#43443f" d="M 182.5,294.5 C 182.5,296.167 182.5,297.833 182.5,299.5C 121.5,360.167 60.5,420.833 -0.5,481.5C -0.5,479.833 -0.5,478.167 -0.5,476.5C 60.5,415.833 121.5,355.167 182.5,294.5 Z"/></g>
<g><path style="opacity:0.022" fill="#43443f" d="M 295.5,301.5 C 295.5,303.167 295.5,304.833 295.5,306.5C 268.833,332.833 242.167,359.167 215.5,385.5C 215.5,383.833 215.5,382.167 215.5,380.5C 242.167,354.167 268.833,327.833 295.5,301.5 Z"/></g>
<g><path style="opacity:0.022" fill="#43443f" d="M 511.5,305.5 C 511.5,307.167 511.5,308.833 511.5,310.5C 444.167,377.167 377.167,444.167 310.5,511.5C 308.833,511.5 307.167,511.5 305.5,511.5C 373.833,442.5 442.5,373.833 511.5,305.5 Z"/></g>
<g><path style="opacity:0.022" fill="#43443f" d="M 182.5,314.5 C 182.5,316.167 182.5,317.833 182.5,319.5C 121.5,380.167 60.5,440.833 -0.5,501.5C -0.5,499.833 -0.5,498.167 -0.5,496.5C 60.5,435.833 121.5,375.167 182.5,314.5 Z"/></g>
<g><path style="opacity:0.022" fill="#43443f" d="M 295.5,321.5 C 295.5,323.167 295.5,324.833 295.5,326.5C 268.833,352.833 242.167,379.167 215.5,405.5C 215.5,403.833 215.5,402.167 215.5,400.5C 242.167,374.167 268.833,347.833 295.5,321.5 Z"/></g>
<g><path style="opacity:0.022" fill="#43443f" d="M 511.5,325.5 C 511.5,327.167 511.5,328.833 511.5,330.5C 450.833,390.5 390.5,450.833 330.5,511.5C 328.833,511.5 327.167,511.5 325.5,511.5C 387.167,449.167 449.167,387.167 511.5,325.5 Z"/></g>
<g><path style="opacity:0.022" fill="#43443f" d="M 182.5,334.5 C 182.5,336.167 182.5,337.833 182.5,339.5C 124.833,396.5 67.5,453.833 10.5,511.5C 8.83333,511.5 7.16667,511.5 5.5,511.5C 64.1667,452.167 123.167,393.167 182.5,334.5 Z"/></g>
<g><path style="opacity:0.022" fill="#43443f" d="M 295.5,341.5 C 295.5,343.167 295.5,344.833 295.5,346.5C 268.833,372.833 242.167,399.167 215.5,425.5C 215.5,423.833 215.5,422.167 215.5,420.5C 242.167,394.167 268.833,367.833 295.5,341.5 Z"/></g>
<g><path style="opacity:0.022" fill="#43443f" d="M 511.5,345.5 C 511.5,347.167 511.5,348.833 511.5,350.5C 457.5,403.833 403.833,457.5 350.5,511.5C 348.833,511.5 347.167,511.5 345.5,511.5C 400.5,455.833 455.833,400.5 511.5,345.5 Z"/></g>
<g><path style="opacity:0.022" fill="#43443f" d="M 182.5,354.5 C 182.5,356.167 182.5,357.833 182.5,359.5C 131.5,409.833 80.8333,460.5 30.5,511.5C 28.8333,511.5 27.1667,511.5 25.5,511.5C 77.5,458.833 129.833,406.5 182.5,354.5 Z"/></g>
<g><path style="opacity:0.022" fill="#43443f" d="M 295.5,361.5 C 295.5,363.167 295.5,364.833 295.5,366.5C 268.833,392.833 242.167,419.167 215.5,445.5C 215.5,443.833 215.5,442.167 215.5,440.5C 242.167,414.167 268.833,387.833 295.5,361.5 Z"/></g>
<g><path style="opacity:0.022" fill="#43443f" d="M 511.5,365.5 C 511.5,367.167 511.5,368.833 511.5,370.5C 464.167,417.167 417.167,464.167 370.5,511.5C 368.833,511.5 367.167,511.5 365.5,511.5C 413.833,462.5 462.5,413.833 511.5,365.5 Z"/></g>
<g><path style="opacity:0.022" fill="#43443f" d="M 182.5,374.5 C 182.5,376.167 182.5,377.833 182.5,379.5C 138.167,423.167 94.1667,467.167 50.5,511.5C 48.8333,511.5 47.1667,511.5 45.5,511.5C 90.8333,465.5 136.5,419.833 182.5,374.5 Z"/></g>
<g><path style="opacity:0.022" fill="#43443f" d="M 295.5,381.5 C 295.5,383.167 295.5,384.833 295.5,386.5C 272.833,408.5 250.5,430.833 228.5,453.5C 227.833,453.5 227.5,453.833 227.5,454.5C 223.966,456.766 220.3,458.766 216.5,460.5C 242.5,433.833 268.833,407.5 295.5,381.5 Z"/></g>
<g><path style="opacity:0.022" fill="#43443f" d="M 511.5,385.5 C 511.5,387.167 511.5,388.833 511.5,390.5C 470.833,430.5 430.5,470.833 390.5,511.5C 388.833,511.5 387.167,511.5 385.5,511.5C 427.167,469.167 469.167,427.167 511.5,385.5 Z"/></g>
<g><path style="opacity:0.022" fill="#43443f" d="M 182.5,394.5 C 182.5,396.167 182.5,397.833 182.5,399.5C 144.833,436.5 107.5,473.833 70.5,511.5C 68.8333,511.5 67.1667,511.5 65.5,511.5C 104.167,472.167 143.167,433.167 182.5,394.5 Z"/></g>
<g><path style="opacity:0.022" fill="#43433f" d="M 295.5,401.5 C 295.5,403.167 295.5,404.833 295.5,406.5C 288.167,413.167 281.167,420.167 274.5,427.5C 273.833,427.5 273.5,427.833 273.5,428.5C 269.966,430.766 266.3,432.766 262.5,434.5C 273.167,423.167 284.167,412.167 295.5,401.5 Z"/></g>
<g><path style="opacity:0.022" fill="#43443f" d="M 511.5,405.5 C 511.5,407.167 511.5,408.833 511.5,410.5C 477.5,443.833 443.833,477.5 410.5,511.5C 408.833,511.5 407.167,511.5 405.5,511.5C 440.5,475.833 475.833,440.5 511.5,405.5 Z"/></g>
<g><path style="opacity:0.022" fill="#43443f" d="M 182.5,414.5 C 182.5,416.167 182.5,417.833 182.5,419.5C 151.5,449.833 120.833,480.5 90.5,511.5C 88.8333,511.5 87.1667,511.5 85.5,511.5C 117.5,478.833 149.833,446.5 182.5,414.5 Z"/></g>
<g><path style="opacity:0.022" fill="#43443f" d="M 511.5,425.5 C 511.5,427.167 511.5,428.833 511.5,430.5C 484.167,457.167 457.167,484.167 430.5,511.5C 428.833,511.5 427.167,511.5 425.5,511.5C 453.833,482.5 482.5,453.833 511.5,425.5 Z"/></g>
<g><path style="opacity:0.022" fill="#43443f" d="M 182.5,434.5 C 182.5,436.167 182.5,437.833 182.5,439.5C 158.167,463.167 134.167,487.167 110.5,511.5C 108.833,511.5 107.167,511.5 105.5,511.5C 130.833,485.5 156.5,459.833 182.5,434.5 Z"/></g>
<g><path style="opacity:0.022" fill="#43433f" d="M 320.5,440.5 C 297.167,464.167 273.833,487.833 250.5,511.5C 248.833,511.5 247.167,511.5 245.5,511.5C 266.5,490.167 287.5,468.833 308.5,447.5C 309.167,447.5 309.5,447.167 309.5,446.5C 313.034,444.234 316.7,442.234 320.5,440.5 Z"/></g>
<g><path style="opacity:0.022" fill="#43443f" d="M 511.5,445.5 C 511.5,447.167 511.5,448.833 511.5,450.5C 490.833,470.5 470.5,490.833 450.5,511.5C 448.833,511.5 447.167,511.5 445.5,511.5C 467.167,489.167 489.167,467.167 511.5,445.5 Z"/></g>
<g><path style="opacity:0.022" fill="#43443f" d="M 182.5,454.5 C 182.5,456.167 182.5,457.833 182.5,459.5C 164.833,476.5 147.5,493.833 130.5,511.5C 128.833,511.5 127.167,511.5 125.5,511.5C 144.167,492.167 163.167,473.167 182.5,454.5 Z"/></g>
<g><path style="opacity:0.022" fill="#43443f" d="M 511.5,465.5 C 511.5,467.167 511.5,468.833 511.5,470.5C 497.5,483.833 483.833,497.5 470.5,511.5C 468.833,511.5 467.167,511.5 465.5,511.5C 480.5,495.833 495.833,480.5 511.5,465.5 Z"/></g>
<g><path style="opacity:0.022" fill="#43433f" d="M 273.5,467.5 C 259.167,482.167 244.833,496.833 230.5,511.5C 228.833,511.5 227.167,511.5 225.5,511.5C 237.833,498.833 250.167,486.167 262.5,473.5C 263.167,473.5 263.5,473.167 263.5,472.5C 266.55,470.308 269.883,468.642 273.5,467.5 Z"/></g>
<g><path style="opacity:0.022" fill="#43443f" d="M 182.5,474.5 C 182.5,476.167 182.5,477.833 182.5,479.5C 171.5,489.833 160.833,500.5 150.5,511.5C 148.833,511.5 147.167,511.5 145.5,511.5C 157.5,498.833 169.833,486.5 182.5,474.5 Z"/></g>
<g><path style="opacity:0.022" fill="#43443f" d="M 511.5,485.5 C 511.5,487.167 511.5,488.833 511.5,490.5C 504.167,497.167 497.167,504.167 490.5,511.5C 488.833,511.5 487.167,511.5 485.5,511.5C 493.833,502.5 502.5,493.833 511.5,485.5 Z"/></g>
<g><path style="opacity:0.022" fill="#43443f" d="M 227.5,493.5 C 221.833,499.5 216.167,505.5 210.5,511.5C 208.833,511.5 207.167,511.5 205.5,511.5C 209.167,507.5 212.833,503.5 216.5,499.5C 217.167,499.5 217.5,499.167 217.5,498.5C 220.55,496.308 223.883,494.642 227.5,493.5 Z"/></g>
<g><path style="opacity:0.022" fill="#43433f" d="M 182.5,494.5 C 183.401,495.29 184.068,496.29 184.5,497.5C 179.5,501.833 174.833,506.5 170.5,511.5C 168.833,511.5 167.167,511.5 165.5,511.5C 170.833,505.5 176.5,499.833 182.5,494.5 Z"/></g>
<g><path style="opacity:0.022" fill="#43443f" d="M 191.5,505.5 C 192.791,505.263 193.791,505.596 194.5,506.5C 193.167,508.167 191.833,509.833 190.5,511.5C 188.833,511.5 187.167,511.5 185.5,511.5C 187.167,509.167 189.167,507.167 191.5,505.5 Z"/></g>
<g><path style="opacity:0.022" fill="#43443f" d="M 511.5,505.5 C 511.5,507.167 511.5,508.833 511.5,510.5C 510.833,510.5 510.5,510.833 510.5,511.5C 508.833,511.5 507.167,511.5 505.5,511.5C 507.167,509.167 509.167,507.167 511.5,505.5 Z"/></g>
</svg>
